# xmcd CD database file
#
# Track frame offsets:
#	150
#	26559
#	34773
#	49949
#
# Disc length: 1028 seconds
#
# Revision: 0
# Processed by: cddbd v1.5.1PL0 Copyright (c) Steve Scherf et al.
# Submitted via: CDex 1.51
#
DISCID=2c040204
DTITLE=sona - コエヲキカセテ
DYEAR=2005
DGENRE=JPop
TTITLE0=コエヲキカセテ
TTITLE1=silent blue
TTITLE2=かげろう
TTITLE3=コエヲキカセテ 〜silent blue version〜
EXTD=YEAR: 2005
EXTT0=
EXTT1=
EXTT2=
EXTT3=
PLAYORDER=
